<?xml version="1.0" encoding="utf-8"?>
<!-- Generator: Adobe Illustrator 23.0.0, SVG Export Plug-In . SVG Version: 6.00 Build 0)  -->
<svg version="1.1" id="Layer_1" xmlns="http://www.w3.org/2000/svg" xmlns:xlink="http://www.w3.org/1999/xlink" x="0px" y="0px"
	 viewBox="0 0 1000 1000" style="enable-background:new 0 0 1000 1000;" xml:space="preserve">
<style type="text/css">
	.st0{display:none;}
	.st1{fill:#FFFFFF;}
	.st2{fill:#8CFAD0;}
	.st3{fill:#EB6208;}
</style>
<rect x="1229.5" y="-11.4" class="st0" width="1036" height="1036"/>
<g>
	<path class="st1" d="M178.1,634.5h17.7v82.4h-17.7V634.5z"/>
	<path class="st1" d="M213,634.5h17.6l39.7,53.2v-53.2H288v82.4h-17.7l-39.7-53.2v53.2H213V634.5z"/>
	<path class="st1" d="M299.7,704.6l10.2-12.1c7.8,6.7,16.7,10.8,27.1,10.8c8.9,0,13.4-4.1,13.4-9.2c0-5.9-4.8-7.7-17.4-10.6
		c-17.4-4-29.7-8.9-29.7-24.8c0-15.2,12.5-25.7,30.5-25.7c13.4,0,23.9,4.2,32.3,11.4l-9.2,12.7c-7.3-5.9-15.6-9.1-23.5-9.1
		c-7.6,0-12.1,4-12.1,8.9c0,6,4.9,7.9,17.6,10.8c17.7,4,29.5,9.2,29.5,24.5c0,15.7-11.9,26.1-32,26.1
		C322,718.3,309.3,713.5,299.7,704.6z"/>
	<path class="st1" d="M430.5,716.9l-18.8-26.7h-13.1v26.7H381v-82.4h37c17.9,0,31.1,11.5,31.1,27.8c0,12.2-7.4,21.8-18.7,25.8
		l20.3,28.8L430.5,716.9L430.5,716.9z M398.6,673.9h17.5c8.8,0,14.8-4.6,14.8-11.6s-6-11.6-14.8-11.6h-17.5V673.9z"/>
	<path class="st1" d="M517.4,703.9h-36.7l-5.3,13h-19.8l33.6-82.4H509l33.6,82.4h-19.9L517.4,703.9z M511.3,688.9l-12.2-30.1
		l-12.2,30.1H511.3z"/>
	<path class="st1" d="M552.3,634.5h37.1c17.9,0,31.1,11.5,31.1,27.8s-13.2,27.8-31.1,27.8H570v26.7h-17.6v-82.3H552.3z M587.5,673.9
		c8.8,0,14.8-4.6,14.8-11.6s-6-11.6-14.8-11.6H570V674h17.5V673.9z"/>
	<path class="st1" d="M704.3,634.5v82.4h-17.6v-34.1h-37.5v34.1h-17.6v-82.4h17.6v32.4h37.5v-32.4H704.3z"/>
	<path class="st1" d="M720.8,634.5h17.7v82.4h-17.7V634.5z"/>
	<path class="st1" d="M751.8,675.6c0-23.1,20.1-42.6,43.8-42.6c12.5,0,24,5.3,32,13.8l-12.8,11.5c-4.8-5.5-11.6-9.2-19.2-9.2
		c-13.8,0-25.5,12.2-25.5,26.5c0,14.4,11.8,26.6,25.5,26.6c7.6,0,14.4-3.7,19.2-9.2l12.8,11.5c-8,8.4-19.5,13.8-32,13.8
		C771.9,718.3,751.8,698.8,751.8,675.6z"/>
</g>
<g>
	<g>
		<path class="st2" d="M642.2,471.6c-6.5-3.2-12.9-6.4-19.4-9.7c-3.8-1.9-9-1.1-11.1,3v0.1c-1.9,3.8-1.1,9,3,11.1
			c6.5,3.2,12.9,6.4,19.4,9.7c3.6,2.1,9.1,1,11.1-3c0.8-1.4,1.1-3,1-4.7C646,475.5,644.8,472.9,642.2,471.6z"/>
		<path class="st2" d="M388.5,465c-2.1-4.1-7.4-4.8-11.1-2.9c-6.5,3.2-12.9,6.5-19.4,9.7c-2.6,1.3-3.8,3.9-3.9,6.5
			c-0.1,1.6,0.2,3.3,1.1,4.7c2,4,7.5,5,11.1,2.9c6.5-3.2,12.9-6.5,19.4-9.7c4.1-2.1,4.8-7.4,2.9-11.1
			C388.5,465.1,388.5,465.1,388.5,465z"/>
		<path class="st2" d="M648.4,369.3c-7.1,1.5-14.1,3-21.2,4.5c-2,0.4-3.5,1.6-4.5,3.2c-0.5,0.8-0.9,1.6-1.1,2.5
			c-0.4,1.4-0.4,2.9-0.1,4.3c0,0.1,0,0.2,0.1,0.3c0.9,4,3.8,5.8,6.8,5.9c1,0.1,2,0.1,3.1-0.1c7-1.6,14.1-3.2,21.1-4.7
			C662.8,382.7,658.5,367.2,648.4,369.3z"/>
		<path class="st2" d="M378.6,382.9c0.7-3.7-0.9-7.7-5.7-8.7c-7-1.6-14.1-3.1-21.1-4.7c-4.1-0.9-9,1.2-10,5.7c0,0.1,0,0.2-0.1,0.3
			c-0.9,4.1,1.2,9,5.7,10c7.1,1.5,14.1,3,21.2,4.5C374.1,391,377.8,387.1,378.6,382.9z"/>
		<path class="st2" d="M602.2,284.5c-0.1,0-0.1-0.1-0.2-0.1c-3.2-2.5-8.5-3.6-11.5,0.1c-4.5,5.7-9,11.3-13.5,17
			c-2.8,3.5-3.3,8.1,0.1,11.5c0.2,0.2,0.4,0.4,0.6,0.5c3,2.4,8.3,2.7,10.9-0.6c4.5-5.6,9.1-11.2,13.6-16.8
			C604.8,292.8,605.9,287.5,602.2,284.5z"/>
		<path class="st2" d="M422.8,301.5c-4.5-5.7-9-11.3-13.5-16.9c-3-3.7-8.4-2.4-11.5,0.1c-0.1,0-0.1,0.1-0.2,0.1
			c-3.7,3-2.4,8.4,0.1,11.5c4.5,5.6,9.1,11.2,13.7,16.8c1.5,1.9,3.9,2.5,6.2,2.3c2-0.2,3.9-1,5.2-2.4c1.4-1.4,2-2.9,2.2-4.5
			C425.3,306.1,424.4,303.6,422.8,301.5z"/>
		<path class="st2" d="M500,248.2h-0.1c-4.4,0-8.2,3.6-8.2,8.1c0,7.2,0,14.5,0,21.7c0,4.4,3.6,8.2,8.1,8.2h0.1c2.3,0,4.1-0.8,5.4-2
			c1.6-1.3,2.8-3.3,2.8-6c0-7.2,0-14.5,0-21.7C508.1,252,504.5,248.2,500,248.2z"/>
	</g>
	<path class="st3" d="M536.2,439.1c0.1-0.2,0.2-0.4,0.3-0.6l1.6,0.6H536.2z"/>
	<path class="st3" d="M392.1,411.1c0.9-13.6,4.3-26.4,9.8-38.2c3.5-1.8,7.6-2.8,11.8-2.8c12.1,0,22.2,8.2,25.3,19.3
		c-3.7,7.7-6,16.2-6.5,25.2c-4.8,4.9-11.4,7.9-18.8,7.9C404.7,422.5,396.8,418,392.1,411.1z"/>
	<path class="st3" d="M578.2,496c-1.2,1.2-2.5,2.4-3.8,3.6s-2.6,2.3-4,3.4c-2,1.7-4.1,3.3-6.2,4.8l0,0c-0.9,0.7-1.9,1.3-2.8,1.9
		c-0.3,0.2-0.6,0.4-0.9,0.6c-0.9,0.6-1.9,1.2-2.8,1.8l0,0c-1.5,0.9-3,1.8-4.6,2.6c-3.9,2.1-7.9,4-12,5.6c-2.5,1-5,1.9-7.6,2.7
		c-1.7,0.5-3.4,1-5.2,1.5c-1.7,0.5-3.5,0.9-5.3,1.2c-1.8,0.4-3.6,0.7-5.4,1c-5.4,0.8-11,1.3-16.6,1.3
		c-59.3,0-107.6-47.3-109.2-106.2c5.9,5.1,13.5,8.1,21.9,8.1c7,0,13.5-2.1,18.9-5.8c2.7,35.4,32.3,63.3,68.4,63.3c0.6,0,1.2,0,1.8,0
		c0.5,0,1,0,1.5,0c1.3-0.1,2.6-0.2,3.8-0.3c0.7-0.1,1.5-0.2,2.2-0.3c0.4,0,0.8-0.1,1.1-0.2c0.6-0.1,1.1-0.2,1.7-0.3
		c0.4-0.1,0.7-0.1,1.1-0.2c0.7-0.1,1.5-0.3,2.2-0.5c0.5-0.1,0.9-0.2,1.3-0.3c0.9-0.2,1.8-0.5,2.7-0.7c0.5-0.1,1-0.3,1.4-0.4
		s0.8-0.3,1.2-0.4s0.9-0.3,1.3-0.5c0.4-0.1,0.9-0.3,1.3-0.5c0.4-0.2,0.9-0.3,1.3-0.5c1.7-0.7,3.3-1.4,4.9-2.2
		c0.4-0.2,0.8-0.4,1.2-0.6s0.8-0.4,1.2-0.6c2-1.1,3.9-2.3,5.7-3.5c0.4-0.2,0.7-0.5,1.1-0.8c0.9-0.7,1.8-1.3,2.7-2s1.7-1.4,2.6-2.2
		c0.7-0.6,1.3-1.2,2-1.8l0.1-0.1c0.4-0.4,0.8-0.8,1.2-1.2L578.2,496z"/>
	<path class="st3" d="M413.7,362.7c-2.3,0-4.6,0.2-6.8,0.7c19-32.2,54-53.8,94.1-53.8c5.7,0,11.2,0.4,16.6,1.3
		c1.8,0.3,3.6,0.6,5.4,1c1.8,0.4,3.5,0.8,5.3,1.2c1.7,0.4,3.5,0.9,5.2,1.5c2.6,0.8,5.1,1.7,7.6,2.7c4.1,1.6,8.1,3.5,12,5.6
		c1.5,0.8,3.1,1.7,4.6,2.6l0,0c1,0.6,1.9,1.2,2.8,1.8c0.3,0.2,0.6,0.4,0.9,0.6c0.9,0.6,1.9,1.3,2.8,1.9l0,0c2.1,1.5,4.2,3.1,6.2,4.8
		c1.4,1.1,2.7,2.3,4,3.4c1.3,1.2,2.6,2.4,3.8,3.6l-28.7,28.7c-0.4-0.4-0.8-0.8-1.2-1.2l-0.1-0.1c-0.7-0.6-1.3-1.2-2-1.8
		c-0.8-0.7-1.7-1.4-2.6-2.2c-0.9-0.7-1.8-1.4-2.7-2c-0.4-0.3-0.7-0.5-1.1-0.8c-0.4-0.3-0.7-0.5-1.1-0.8c-1.5-1-3-1.9-4.6-2.8
		c-0.4-0.2-0.8-0.4-1.2-0.7c-0.4-0.2-0.8-0.4-1.2-0.6c-1.6-0.8-3.3-1.6-4.9-2.2c-0.4-0.2-0.8-0.4-1.3-0.5c-0.4-0.2-0.8-0.3-1.3-0.5
		c-0.4-0.2-0.9-0.3-1.3-0.5c-0.4-0.1-0.8-0.3-1.2-0.4c-0.5-0.2-0.9-0.3-1.4-0.4c-0.9-0.3-1.8-0.5-2.7-0.7c-0.4-0.1-0.9-0.2-1.3-0.3
		c-0.7-0.2-1.4-0.3-2.2-0.5c-0.4-0.1-0.7-0.1-1.1-0.2c-0.6-0.1-1.1-0.2-1.7-0.3c-0.4-0.1-0.8-0.1-1.1-0.2c-0.3,0-0.5-0.1-0.8-0.1
		c-0.6-0.1-1.3-0.2-1.9-0.2c-0.4-0.1-0.9-0.1-1.3-0.1c-0.6-0.1-1.3-0.1-2-0.1c-0.5,0-1,0-1.5,0c-0.6,0-1.2,0-1.8,0
		c-24,0-45.1,12.3-57.4,30.9C438.1,370.2,426.8,362.7,413.7,362.7z"/>
	<path class="st3" d="M392.1,411.1c0.9-13.6,4.3-26.4,9.8-38.2c3.5-1.8,7.6-2.8,11.8-2.8c12.1,0,22.2,8.2,25.3,19.3
		c-3.7,7.7-6,16.2-6.5,25.2c-4.8,4.9-11.4,7.9-18.8,7.9C404.7,422.5,396.8,418,392.1,411.1z"/>
	<path class="st2" d="M578.2,496c-1.2,1.2-2.5,2.4-3.8,3.6s-2.6,2.3-4,3.4c-2,1.7-4.1,3.3-6.2,4.8l0,0c-0.9,0.7-1.9,1.3-2.8,1.9
		c-0.3,0.2-0.6,0.4-0.9,0.6c-0.9,0.6-1.9,1.2-2.8,1.8l0,0c-1.5,0.9-3,1.8-4.6,2.6c-3.9,2.1-7.9,4-12,5.6c-2.5,1-5,1.9-7.6,2.7
		c-1.7,0.5-3.4,1-5.2,1.5c-1.7,0.5-3.5,0.9-5.3,1.2c-1.8,0.4-3.6,0.7-5.4,1c-5.4,0.8-11,1.3-16.6,1.3
		c-59.3,0-107.6-47.3-109.2-106.2c5.9,5.1,13.5,8.1,21.9,8.1c7,0,13.5-2.1,18.9-5.8c2.7,35.4,32.3,63.3,68.4,63.3c0.6,0,1.2,0,1.8,0
		c0.5,0,1,0,1.5,0c1.3-0.1,2.6-0.2,3.8-0.3c0.7-0.1,1.5-0.2,2.2-0.3c0.4,0,0.8-0.1,1.1-0.2c0.6-0.1,1.1-0.2,1.7-0.3
		c0.4-0.1,0.7-0.1,1.1-0.2c0.7-0.1,1.5-0.3,2.2-0.5c0.5-0.1,0.9-0.2,1.3-0.3c0.9-0.2,1.8-0.5,2.7-0.7c0.5-0.1,1-0.3,1.4-0.4
		s0.8-0.2,1.2-0.4c0.4-0.1,0.9-0.3,1.3-0.5c0.4-0.1,0.9-0.3,1.3-0.5c0.4-0.1,0.9-0.3,1.3-0.5c1.7-0.7,3.3-1.4,4.9-2.2
		c0.4-0.2,0.8-0.4,1.2-0.6s0.8-0.4,1.2-0.6c2-1.1,3.9-2.3,5.7-3.5c0.4-0.2,0.7-0.5,1.1-0.8c0.9-0.6,1.8-1.3,2.7-2s1.7-1.4,2.6-2.2
		c0.7-0.6,1.3-1.2,2-1.8l0.1-0.1c0.4-0.4,0.8-0.8,1.2-1.2L578.2,496z"/>
	<path class="st1" d="M413.7,422.5c7.4,0,14-3,18.8-7.9c0.4-0.4,0.7-0.7,1-1.1c0.5-6.1,1.7-12,3.7-17.5c0.6-1.8,1.3-3.5,2.1-5.2
		c-0.1-0.5-0.2-1-0.4-1.5c-3-11.1-13.2-19.3-25.3-19.3c-4.2,0-8.1,1-11.6,2.7c-3.4,7.3-6,15.1-7.8,23.2c-1.1,5-1.8,10.1-2.1,15.3
		C396.9,418.1,404.8,422.5,413.7,422.5z"/>
	<g>
		<path class="st1" d="M407,363.4c1.6-0.3,3.3-0.6,5-0.6c0.6,0,1.1,0,1.7,0c5.8,0,11.3,1.5,16.1,4.1l0.1,0.1
			c0.6,0.3,1.2,0.7,1.8,1.1c0.1,0.1,0.3,0.2,0.4,0.3c0.5,0.3,1,0.6,1.4,1c0.2,0.2,0.5,0.4,0.7,0.5c0.4,0.3,0.7,0.6,1.1,0.9
			c0.3,0.3,0.6,0.5,0.9,0.8c0.3,0.2,0.5,0.5,0.8,0.7c0.3,0.3,0.7,0.7,1,1c0.2,0.2,0.4,0.4,0.6,0.6c0.4,0.4,0.7,0.8,1,1.2
			c0.1,0.2,0.3,0.3,0.4,0.5c0.3,0.4,0.7,0.9,1,1.4c0.1,0.2,0.2,0.3,0.3,0.5c0.3,0.5,0.6,1,0.9,1.4c0.1,0.2,0.2,0.3,0.3,0.5
			c0.3,0.5,0.6,1,0.8,1.5c0.2,0.4,0.5,0.8,0.7,1.3c12.1-18.6,33-31,56.9-31c29.3,0,54.4,18.8,63.8,44.9h42.9
			c-4.5-21-15-39.7-29.6-54.3l0.1-0.1c-1.2-1.2-2.5-2.4-3.8-3.6s-2.6-2.3-4-3.4c-2-1.7-4.1-3.3-6.2-4.8l0,0
			c-0.9-0.7-1.9-1.3-2.8-1.9c-0.3-0.2-0.6-0.4-0.9-0.6c-0.9-0.6-1.9-1.2-2.8-1.8l0,0c-1.5-0.9-3-1.8-4.6-2.6c-3.9-2.1-7.9-4-12-5.6
			c-2.5-1-5-1.9-7.6-2.7c-1.7-0.5-3.4-1-5.2-1.5c-1.7-0.5-3.5-0.9-5.3-1.2c-1.8-0.4-3.6-0.7-5.4-1c-5.4-0.8-11-1.3-16.6-1.3
			c-40.1,0-75.1,21.6-94.1,53.8C406.9,363.4,407,363.4,407,363.4C407.1,363.4,407.1,363.4,407,363.4z"/>
		<path class="st2" d="M501,486.5c-29.4,0-54.4-18.8-63.8-44.9c-2.1-5.7-3.4-11.8-3.8-18.1c-5.7,4.2-12.5,6.4-19.8,6.4
			c-8.1,0-15.7-2.9-21.7-8c0.2,6.7,1,13.3,2.3,19.6c10.5,49.3,54.3,86.3,106.7,86.3s96.2-37,106.7-86.3h-42.9
			C555.4,467.7,530.4,486.5,501,486.5z"/>
		<path class="st1" d="M541.1,539.8l-80.1,0.1c-3.2,0-5.8,3-5.8,6.6c0,3.7,2.6,6.6,5.8,6.6h8.6l8.7,17.5c0,0,4.2,5.6,6.3,6.2
			c2.1,0.6,26.8,3.3,34.4,0c0,0,3.7-1.1,6.6-6.7c2.2-4.3,7-13.1,9.1-17.1h6.4c3.2,0,5.7-3,5.7-6.6S544.3,539.8,541.1,539.8z"/>
		
			<ellipse transform="matrix(0.1602 -0.9871 0.9871 0.1602 7.3565 846.2465)" class="st1" cx="501" cy="418.8" rx="53.4" ry="53.4"/>
		<g>
			<g>
				<path class="st2" d="M440,396.3c0,6.6-2.4,12.6-6.4,17.2c-0.3,0.4-0.7,0.8-1,1.1c-4.8,4.9-11.4,7.9-18.8,7.9
					c-8.9,0-16.8-4.5-21.5-11.3l-0.1-0.1c-2.9-4.2-4.6-9.3-4.6-14.8c0-10.2,5.8-19.1,14.4-23.4c0.1,0,0.1-0.1,0.2-0.1
					c3.5-1.8,7.4-2.7,11.6-2.7c12.1,0,22.2,8.2,25.3,19.3c0.1,0.5,0.3,1,0.4,1.5C439.8,392.6,440,394.4,440,396.3z"/>
			</g>
		</g>
	</g>
</g>
</svg>
